HIERARCHY
ROOT hip
{
  OFFSET 0 0 0
  CHANNELS 6 Xposition Yposition Zposition Zrotation Yrotation Xrotation
  JOINT abdomen
  {
    OFFSET 0 20.6881 -0.73152
    CHANNELS 3 Zrotation Xrotation Yrotation
    JOINT chest
    {
      OFFSET 0 11.7043 -0.48768
      CHANNELS 3 Zrotation Xrotation Yrotation
      JOINT neck
      {
        OFFSET 0 22.1894 -2.19456
        CHANNELS 3 Zrotation Xrotation Yrotation
        JOINT head
        {
          OFFSET -0.24384 7.07133 1.2192
          CHANNELS 3 Zrotation Xrotation Yrotation
          JOINT leftEye
          {
            OFFSET 4.14528 8.04674 8.04672
            CHANNELS 3 Zrotation Xrotation Yrotation
            End Site
            {
              OFFSET 1 0 0
            }
          }
          JOINT rightEye
          {
            OFFSET -3.6576 8.04674 8.04672
            CHANNELS 3 Zrotation Xrotation Yrotation
            End Site
            {
              OFFSET 1 0 0
            }
          }
        }
      }
      JOINT rCollar
      {
        OFFSET -2.68224 19.2634 -4.8768
        CHANNELS 3 Zrotation Xrotation Yrotation
        JOINT rShldr
        {
          OFFSET -8.77824 -1.95073 1.46304
          CHANNELS 3 Zrotation Xrotation Yrotation
          JOINT rForeArm
          {
            OFFSET -28.1742 -1.7115 0.48768
            CHANNELS 3 Zrotation Xrotation Yrotation
            JOINT rHand
            {
              OFFSET -22.5879 0.773209 7.07136
              CHANNELS 3 Zrotation Xrotation Yrotation
              JOINT rThumb1
              {
                OFFSET -1.2192 -0.487915 3.41376
                CHANNELS 3 Zrotation Xrotation Yrotation
                JOINT rThumb2
                {
                  OFFSET -3.37035 -0.52449 3.41376
                  CHANNELS 3 Zrotation Xrotation Yrotation
                  End Site
                  {
                    OFFSET -1.78271 -1.18214 1.43049
                  }
                }
              }
              JOINT rIndex1
              {
                OFFSET -7.75947 0.938293 5.60832
                CHANNELS 3 Zrotation Xrotation Yrotation
                JOINT rIndex2
                {
                  OFFSET -2.54057 -0.884171 1.56538
                  CHANNELS 3 Zrotation Xrotation Yrotation
                  End Site
                  {
                    OFFSET -1.62519 -0.234802 1.16502
                  }
                }
              }
              JOINT rMid1
              {
                OFFSET -8.24714 1.18213 3.41376
                CHANNELS 3 Zrotation Xrotation Yrotation
                JOINT rMid2
                {
                  OFFSET -3.10165 -0.590103 1.0647
                  CHANNELS 3 Zrotation Xrotation Yrotation
                  End Site
                  {
                    OFFSET -2.48547 -0.328903 0.83742
                  }
                }
              }
              JOINT rRing1
              {
                OFFSET -8.82822 0.546677 1.51678
                CHANNELS 3 Zrotation Xrotation Yrotation
                JOINT rRing2
                {
                  OFFSET -2.60934 -0.819778 -0.0198488
                  CHANNELS 3 Zrotation Xrotation Yrotation
                  End Site
                  {
                    OFFSET -2.33842 -0.294052 0.168128
                  }
                }
              }
              JOINT rPinky1
              {
                OFFSET -8.27202 -0.0477905 -0.4584
                CHANNELS 3 Zrotation Xrotation Yrotation
                JOINT rPinky2
                {
                  OFFSET -1.82734 -0.647385 -0.700984
                  CHANNELS 3 Zrotation Xrotation Yrotation
                  End Site
                  {
                    OFFSET -1.69225 -0.51767 -0.607171
                  }
                }
              }
            }
          }
        }
      }
      JOINT lCollar
      {
        OFFSET 2.68224 19.2634 -4.8768
        CHANNELS 3 Zrotation Xrotation Yrotation
        JOINT lShldr
        {
          OFFSET 8.77824 -1.95073 1.46304
          CHANNELS 3 Zrotation Xrotation Yrotation
          JOINT lForeArm
          {
            OFFSET 28.1742 -1.7115 0.48768
            CHANNELS 3 Zrotation Xrotation Yrotation
            JOINT lHand
            {
              OFFSET 22.5879 0.773209 7.07136
              CHANNELS 3 Zrotation Xrotation Yrotation
              JOINT lThumb1
              {
                OFFSET 1.2192 -0.487915 3.41376
                CHANNELS 3 Zrotation Xrotation Yrotation
                JOINT lThumb2
                {
                  OFFSET 3.37035 -0.52449 3.41376
                  CHANNELS 3 Zrotation Xrotation Yrotation
                  End Site
                  {
                    OFFSET 1.78271 -1.18214 1.43049
                  }
                }
              }
              JOINT lIndex1
              {
                OFFSET 7.75947 0.938293 5.60832
                CHANNELS 3 Zrotation Xrotation Yrotation
                JOINT lIndex2
                {
                  OFFSET 2.54057 -0.884171 1.56538
                  CHANNELS 3 Zrotation Xrotation Yrotation
                  End Site
                  {
                    OFFSET 1.62519 -0.234802 1.16502
                  }
                }
              }
              JOINT lMid1
              {
                OFFSET 8.24714 1.18213 3.41376
                CHANNELS 3 Zrotation Xrotation Yrotation
                JOINT lMid2
                {
                  OFFSET 3.10165 -0.590103 1.0647
                  CHANNELS 3 Zrotation Xrotation Yrotation
                  End Site
                  {
                    OFFSET 2.48547 -0.328903 0.83742
                  }
                }
              }
              JOINT lRing1
              {
                OFFSET 8.82822 0.546677 1.51678
                CHANNELS 3 Zrotation Xrotation Yrotation
                JOINT lRing2
                {
                  OFFSET 2.60934 -0.819778 -0.0198488
                  CHANNELS 3 Zrotation Xrotation Yrotation
                  End Site
                  {
                    OFFSET 2.33842 -0.294052 0.168128
                  }
                }
              }
              JOINT lPinky1
              {
                OFFSET 8.27202 -0.0477905 -0.4584
                CHANNELS 3 Zrotation Xrotation Yrotation
                JOINT lPinky2
                {
                  OFFSET 1.82734 -0.647385 -0.700984
                  CHANNELS 3 Zrotation Xrotation Yrotation
                  End Site
                  {
                    OFFSET 1.69225 -0.51767 -0.607171
                  }
                }
              }
            }
          }
        }
      }
    }
  }
  JOINT rButtock
  {
    OFFSET -8.77824 4.35084 1.2192
    CHANNELS 3 Zrotation Xrotation Yrotation
    JOINT rThigh
    {
      OFFSET 0 -1.70687 -2.19456
      CHANNELS 3 Zrotation Xrotation Yrotation
      JOINT rShin
      {
        OFFSET 0 -36.8199 0.73152
        CHANNELS 3 Zrotation Xrotation Yrotation
        JOINT rFoot
        {
          OFFSET 0.73152 -45.1104 -5.12064
          CHANNELS 3 Zrotation Xrotation Yrotation
          End Site
          {
            OFFSET -1.1221 -3.69964 12.103
          }
        }
      }
    }
  }
  JOINT lButtock
  {
    OFFSET 8.77824 4.35084 1.2192
    CHANNELS 3 Zrotation Xrotation Yrotation
    JOINT lThigh
    {
      OFFSET 0 -1.70687 -2.19456
      CHANNELS 3 Zrotation Xrotation Yrotation
      JOINT lShin
      {
        OFFSET 0 -36.8199 0.73152
        CHANNELS 3 Zrotation Xrotation Yrotation
        JOINT lFoot
        {
          OFFSET -0.73152 -45.1104 -5.12064
          CHANNELS 3 Zrotation Xrotation Yrotation
          End Site
          {
            OFFSET 1.1221 -3.69964 12.103
          }
        }
      }
    }
  }
}
MOTION
Frames:	7
Frame Time:	0.00833333
-43.1612 83.679 -86.0524 368.039 93.665 372.018 5.34322 3.46078 -3.20296 3.79513 -7.0022 -0.427133 -5.09873 -9.2583 -2.84155 5.53551 14.3124 -3.45113 -0.0 0.0 0.0 -0.0 0.0 0.0 6.36789e-14 3.2092e-12 -1.84572e-13 80.5243 55.3319 -5.89945 -28.2781 -38.5502 81.3612 -0.0519016 6.48766 0.915738 -9.50676e-10 1.38073e-09 1.74518e-09 -1.63129e-09 2.38508e-09 3.0202e-09 -9.50672e-10 1.38073e-09 1.74518e-09 7.73091 5.47488 0.417314 -9.50676e-10 1.38073e-09 1.74518e-09 2.90554 0.965183 0.102902 -9.50674e-10 1.38073e-09 1.74519e-09 10.2786 0.731801 0.0259123 -9.50679e-10 1.38073e-09 1.7452e-09 2.22167 -0.733487 -0.20892 6.35475e-14 3.20919e-12 -1.84721e-13 -86.9281 54.512 10.5834 27.9089 -40.8696 -85.4945 2.38738 -39.4764 6.64721 -5.9907e-10 4.01593e-10 -6.91685e-10 -1.01029e-09 6.96335e-10 -1.2138e-09 -5.99077e-10 4.01594e-10 -6.91672e-10 -7.73091 5.47488 -0.417314 -5.9907e-10 4.01594e-10 -6.91688e-10 -2.90554 0.965183 -0.102902 -5.99075e-10 4.01594e-10 -6.91689e-10 -10.2786 0.731801 -0.0259123 -5.99066e-10 4.01594e-10 -6.91701e-10 -2.22167 -0.733487 0.20892 -2.03217e-16 0.0 -3.88251e-19 -4.3069 -1.35003 1.79534 0.0166767 10.0265 0.26676 -2.93671 -9.76257 -16.3933 2.03217e-16 0.0 3.88251e-19 6.89504 -10.5752 -15.8497 0.105797 19.8738 -0.743765 9.66521 -17.4418 22.0315
-43.2222 83.6778 -86.0303 368.581 93.5876 372.584 5.32481 3.29103 -3.06364 3.80586 -7.01305 -0.388369 -5.16865 -9.1901 -2.86274 5.55611 14.4727 -3.46525 -0.0 0.0 0.0 -0.0 0.0 0.0 6.65485e-14 3.12221e-12 -1.81089e-13 80.0753 55.014 -5.08961 -28.2633 -38.6455 81.5458 -0.0393813 5.73425 0.808525 -1.07134e-09 1.58909e-09 2.11958e-09 -1.84033e-09 2.74589e-09 3.6671e-09 -1.07133e-09 1.58909e-09 2.11958e-09 7.73091 5.47488 0.417314 -1.07134e-09 1.58909e-09 2.11958e-09 2.90554 0.965183 0.102902 -1.07134e-09 1.58909e-09 2.11958e-09 10.2786 0.731801 0.0259123 -1.07134e-09 1.58909e-09 2.11959e-09 2.22167 -0.733487 -0.20892 6.63851e-14 3.12191e-12 -1.81206e-13 -86.0246 54.2126 9.16868 27.8813 -40.9927 -85.7251 2.49656 -40.165 6.81454 -8.88937e-10 5.72244e-10 -9.09161e-10 -1.50199e-09 9.93653e-10 -1.59875e-09 -8.88944e-10 5.72245e-10 -9.0915e-10 -7.73091 5.47488 -0.417314 -8.88937e-10 5.72245e-10 -9.09163e-10 -2.90554 0.965183 -0.102902 -8.88942e-10 5.72244e-10 -9.09164e-10 -10.2786 0.731801 -0.0259123 -8.88932e-10 5.72246e-10 -9.09175e-10 -2.22167 -0.733487 0.20892 -2.03217e-16 0.0 -3.88251e-19 -4.27582 -1.44011 1.91185 0.0164289 10.0076 0.264221 -2.91528 -9.65904 -16.4283 2.03217e-16 0.0 3.88251e-19 6.94783 -10.5496 -15.765 0.105488 19.7385 -0.740381 9.65602 -17.3731 22.0701
-43.2888 83.6765 -86.0055 369.243 93.4772 373.283 5.31028 3.1405 -2.87728 3.85189 -7.02776 -0.333397 -5.26608 -9.10143 -2.89109 5.61981 14.5739 -3.48778 -0.0 0.0 0.0 -0.0 0.0 0.0 6.41348e-14 2.57923e-12 -1.53123e-13 79.3633 54.5692 -4.08309 -28.2636 -38.6377 81.5347 -0.0274434 4.85967 0.684495 -1.40834e-09 1.99805e-09 2.78091e-09 -2.42308e-09 3.4542e-09 4.81138e-09 -1.40833e-09 1.99805e-09 2.7809e-09 7.73091 5.47488 0.417314 -1.40834e-09 1.99805e-09 2.7809e-09 2.90554 0.965183 0.102902 -1.40834e-09 1.99806e-09 2.78091e-09 10.2786 0.731801 0.0259123 -1.40834e-09 1.99806e-09 2.78092e-09 2.22167 -0.733487 -0.20892 6.39316e-14 2.57843e-12 -1.53188e-13 -85.0596 53.9272 7.6494 27.8588 -41.0925 -85.9104 2.56122 -40.5762 6.91464 -1.43417e-09 9.42462e-10 -1.44668e-09 -2.42488e-09 1.6391e-09 -2.54365e-09 -1.43417e-09 9.42463e-10 -1.44667e-09 -7.73091 5.47488 -0.417314 -1.43417e-09 9.42463e-10 -1.44668e-09 -2.90554 0.965183 -0.102902 -1.43417e-09 9.42462e-10 -1.44668e-09 -10.2786 0.731801 -0.0259123 -1.43416e-09 9.42464e-10 -1.44669e-09 -2.22167 -0.733487 0.20892 -2.03217e-16 0.0 -3.88251e-19 -4.22873 -1.55245 2.06334 0.0162154 9.99737 0.262157 -2.88758 -9.54606 -16.4521 2.03217e-16 0.0 3.88251e-19 7.08267 -10.5894 -15.3666 0.106224 19.6623 -0.731853 9.50522 -17.197 21.8766
-43.361 83.6776 -85.973 370.247 93.2964 374.338 5.29597 3.00171 -2.66942 3.91129 -7.0439 -0.271162 -5.38551 -9.00743 -2.93156 5.73153 14.6611 -3.53153 -0.0 0.0 0.0 -0.0 0.0 0.0 5.81154e-14 1.84678e-12 -1.14543e-13 78.4682 54.0663 -2.92453 -28.2745 -38.5581 81.387 -0.0183824 3.97734 0.559789 -1.77487e-09 2.40064e-09 3.43394e-09 -3.05702e-09 4.15156e-09 5.9416e-09 -1.77486e-09 2.40064e-09 3.43393e-09 7.73091 5.47488 0.417314 -1.77487e-09 2.40064e-09 3.43393e-09 2.90554 0.965183 0.102902 -1.77487e-09 2.40064e-09 3.43393e-09 10.2786 0.731801 0.0259123 -1.77487e-09 2.40064e-09 3.43394e-09 2.22167 -0.733487 -0.20892 5.79049e-14 1.84589e-12 -1.14598e-13 -84.0372 53.6822 6.05993 27.8479 -41.1435 -86.0026 2.59851 -40.8211 6.97367 -1.98437e-09 1.33294e-09 -2.02533e-09 -3.35545e-09 2.32009e-09 -3.55949e-09 -1.98437e-09 1.33294e-09 -2.02533e-09 -7.73091 5.47488 -0.417314 -1.98436e-09 1.33294e-09 -2.02533e-09 -2.90554 0.965183 -0.102902 -1.98437e-09 1.33294e-09 -2.02533e-09 -10.2786 0.731801 -0.0259123 -1.98435e-09 1.33294e-09 -2.02534e-09 -2.22167 -0.733487 0.20892 -2.03217e-16 0.0 -3.88251e-19 -4.18116 -1.67307 2.22677 0.016021 9.99151 0.260349 -2.85707 -9.42945 -16.4705 2.03217e-16 0.0 3.88251e-19 7.24461 -10.6596 -14.8312 0.10742 19.6203 -0.721338 9.29727 -16.9764 21.5854
-43.4391 83.6831 -85.9413 371.468 93.1045 375.628 5.27801 2.86724 -2.46558 3.96207 -7.05904 -0.210613 -5.52146 -8.92324 -2.98911 5.89639 14.7798 -3.60935 -0.0 0.0 0.0 -0.0 0.0 0.0 5.0168e-14 1.19138e-12 -7.92157e-14 77.46 53.5746 -1.65029 -28.2903 -38.4367 81.1635 -0.012581 3.20071 0.450304 -1.98412e-09 2.58986e-09 3.78344e-09 -3.41962e-09 4.47951e-09 6.54632e-09 -1.98412e-09 2.58986e-09 3.78343e-09 7.73091 5.47488 0.417314 -1.98412e-09 2.58986e-09 3.78343e-09 2.90554 0.965183 0.102902 -1.98412e-09 2.58986e-09 3.78343e-09 10.2786 0.731801 0.0259123 -1.98412e-09 2.58986e-09 3.78344e-09 2.22167 -0.733487 -0.20892 5.00227e-14 1.1914e-12 -7.93648e-14 -82.9547 53.5057 4.42922 27.8547 -41.1203 -85.9538 2.62826 -41.0107 7.02003 -2.28914e-09 1.56438e-09 -2.36624e-09 -3.87019e-09 2.72402e-09 -4.15721e-09 -2.28914e-09 1.56438e-09 -2.36623e-09 -7.73091 5.47488 -0.417314 -2.28914e-09 1.56438e-09 -2.36624e-09 -2.90554 0.965183 -0.102902 -2.28914e-09 1.56438e-09 -2.36624e-09 -10.2786 0.731801 -0.0259123 -2.28913e-09 1.56438e-09 -2.36624e-09 -2.22167 -0.733487 0.20892 -2.03217e-16 0.0 -3.88251e-19 -4.149 -1.788 2.37905 0.0158294 9.98593 0.25858 -2.8272 -9.31504 -16.4892 2.03217e-16 0.0 3.88251e-19 7.37771 -10.7262 -14.3354 0.108484 19.5876 -0.71199 9.11426 -16.7755 21.3298
-43.5142 83.7023 -85.9178 372.692 92.942 376.926 5.25248 2.73543 -2.26289 4.00781 -7.07883 -0.150686 -5.71073 -8.83955 -3.07855 6.19955 14.925 -3.74753 -0.0 0.0 0.0 -0.0 0.0 0.0 3.82598e-14 5.6623e-13 -4.4459e-14 76.208 53.1153 -0.125876 -28.3129 -38.2437 80.8152 -0.00834562 2.54461 0.357911 -2.01943e-09 2.51577e-09 3.78693e-09 -3.48245e-09 4.35146e-09 6.55166e-09 -2.01943e-09 2.51577e-09 3.78693e-09 7.73091 5.47488 0.417314 -2.01943e-09 2.51577e-09 3.78693e-09 2.90554 0.965183 0.102902 -2.01943e-09 2.51577e-09 3.78693e-09 10.2786 0.731801 0.0259123 -2.01944e-09 2.51577e-09 3.78694e-09 2.22167 -0.733487 -0.20892 3.8323e-14 5.69142e-13 -4.4911e-14 -81.7422 53.414 2.70184 27.8802 -41.0056 -85.7422 2.6515 -41.1505 7.05511 -2.28979e-09 1.61104e-09 -2.43003e-09 -3.86897e-09 2.80622e-09 -4.26693e-09 -2.2898e-09 1.61104e-09 -2.43002e-09 -7.73091 5.47488 -0.417314 -2.28979e-09 1.61104e-09 -2.43003e-09 -2.90554 0.965183 -0.102902 -2.2898e-09 1.61104e-09 -2.43003e-09 -10.2786 0.731801 -0.0259123 -2.28978e-09 1.61104e-09 -2.43004e-09 -2.22167 -0.733487 0.20892 -2.03217e-16 0.0 -3.88251e-19 -4.12448 -1.91612 2.52526 0.015635 9.98085 0.256809 -2.79427 -9.1883 -16.5119 2.03217e-16 0.0 3.88251e-19 7.49095 -10.8041 -13.8544 0.109448 19.5636 -0.703367 8.94892 -16.5773 21.1085
-43.5763 83.7233 -85.9046 373.769 92.7963 378.063 5.22237 2.61016 -2.05095 4.05708 -7.10245 -0.0877568 -5.94332 -8.75272 -3.1927 6.61099 15.0782 -3.93176 -0.0 0.0 0.0 -0.0 0.0 0.0 2.23227e-14 -1.31529e-13 -5.00378e-15 74.7399 52.6377 1.60809 -28.3393 -37.9716 80.3383 -0.00483346 1.9537 0.274723 -1.96939e-09 2.28702e-09 3.58979e-09 -3.39831e-09 3.95561e-09 6.20955e-09 -1.96939e-09 2.28702e-09 3.58979e-09 7.73091 5.47488 0.417314 -1.96939e-09 2.28702e-09 3.58979e-09 2.90554 0.965183 0.102902 -1.96939e-09 2.28702e-09 3.58979e-09 10.2786 0.731801 0.0259123 -1.96939e-09 2.28702e-09 3.5898e-09 2.22167 -0.733487 -0.20892 2.26963e-14 -1.2433e-13 -5.90453e-15 -80.4071 53.3828 0.869749 27.9192 -40.8148 -85.3995 2.65794 -41.1895 7.06488 -2.11718e-09 1.56119e-09 -2.35378e-09 -3.57339e-09 2.72051e-09 -4.12929e-09 -2.11719e-09 1.5612e-09 -2.35377e-09 -7.73091 5.47488 -0.417314 -2.11718e-09 1.56119e-09 -2.35378e-09 -2.90554 0.965183 -0.102902 -2.11718e-09 1.56119e-09 -2.35378e-09 -10.2786 0.731801 -0.0259123 -2.11717e-09 1.5612e-09 -2.35379e-09 -2.22167 -0.733487 0.20892 -2.03217e-16 0.0 -3.88251e-19 -4.10299 -2.05734 2.67397 0.0154474 9.97803 0.255146 -2.75797 -9.05148 -16.5349 2.03217e-16 0.0 3.88251e-19 7.60726 -10.9035 -13.3176 0.110548 19.5594 -0.694209 8.76803 -16.3585 20.8631
